<svg xmlns="http://www.w3.org/2000/svg" fill="none" viewBox="0 0 795 148"><path fill="#fff" d="M98.5 86 78.8 13.1h22.1l8.2 36.5 3.2 16.8h1l12.2-53.3h21.7l12.5 53.4h.9l3.1-17.6 7.8-35.8h21.4l-19 72.9h-25.8l-11.7-47.9h-.8L124.5 86h-26ZM221.92 87c-20.1 0-32.9-10.3-32.9-27.7 0-17.9 13.2-28.3 32.7-28.3 21 0 33.2 11.9 31.7 32.2h-45c.2 6.8 5.4 10.8 14 10.8 6.4 0 11.4-2.2 12.8-5.5h18.3c-1.4 11.1-14.4 18.5-31.6 18.5Zm-.3-43c-7.3 0-12.2 3.1-13.4 8.9h26c-.6-5.4-4.7-8.9-12.6-8.9ZM284.851 87c-15.7 0-26.3-10.9-26.3-27.9 0-17.2 10.6-27.9 26.3-27.9 10 0 16.3 3.5 19.4 8.6h.8l.5-7.8h18.5v54h-19.4v-7.8h-.8c-3.4 5.5-10.6 8.8-19 8.8Zm6.2-14.6c8.5 0 13.5-5.3 13.5-12.5v-1.8c0-7.1-5-12.3-13.5-12.3-7.7 0-13 4.6-13 13.3 0 8.5 5.2 13.3 13 13.3ZM358.635 87c-18.9 0-28.9-7-29.8-18.2h19.1c.5 4.5 4.1 6.7 11.3 6.7 6.4 0 9.9-1.7 9.9-4.9 0-3.9-2.6-4.5-11.5-5.2-19.7-1.8-27-5.5-27-16.5 0-10.7 10.2-17.9 28.3-17.9 15.8 0 26.4 6.1 27.6 17.4h-18.4c-.6-4-4.1-5.9-9.3-5.9-5.6 0-9.3 1.4-9.3 4.8 0 3.5 3.3 4.1 12.2 4.9 19.7 1.7 26.5 5.3 26.5 17.1 0 10.7-9.4 17.7-29.6 17.7ZM394.191 102.7V87.5h7.4c6.9 0 9.3-1.7 10.7-5.2l.3-.7-24.6-49.6h21l10.5 25.4 2.4 6.3h.7l2.3-6.3 10-25.4h20.3l-26.4 56.3c-5.1 10.8-12.6 14.4-24.9 14.4h-9.7ZM461.065 86V13.1h38.1c20.7 0 29.3 9.5 29.3 24.1 0 17-11.7 24.2-29.3 24.2h-17.9V86h-20.2Zm35.9-57.4h-15.7v18.7h15.7c7.9 0 11.2-3.4 11.2-9.4 0-6.9-4.6-9.3-11.2-9.3ZM535.065 86V32h17.7l.7 8.2h.7c2.2-5.5 7.3-9 14.2-9 1.7 0 3.1 0 4.4.2v17.5c-1.7-.3-3.4-.5-4.9-.5-8.5 0-13.2 3.8-13.3 13.8V86h-19.5ZM579.303 25.8V13.1h19.5v12.7h-19.5Zm0 60.2V32h19.5v54h-19.5ZM608.112 86V32h18.8l.7 8.6h.9c3.4-6.1 11.2-9.6 19-9.6 13.9 0 23.4 6.3 23.4 25.3V86h-19.5V59.8c0-8.7-2.5-14.2-10.8-14.2-8 0-13 5.7-13 13.5V86h-19.5ZM699.85 86c-9.4 0-15.5-4.5-15.5-14.1V46.6h-9.7V32h9.7V18.9l19.1-3.6V32h13.1v14.6h-13.1v18.9c0 3.1 1.4 4 4.5 4h8.6V86h-16.7Z"/><path fill="#fff" fill-opacity=".5" d="M89.27 147v-24.475h-5.28v-4.62h5.28v-4.29c0-4.4 2.86-6.71 7.48-6.71h5.225v4.125h-3.74c-2.585 0-3.3 1.265-3.3 3.135v3.74h6.435v4.62h-6.435V147H89.27ZM117.755 147.495c-8.525 0-14.245-5.83-14.245-14.96 0-8.965 5.445-15.07 14.245-15.07 8.47 0 14.19 5.775 14.19 15.015 0 8.91-5.445 15.015-14.19 15.015Zm0-4.73c5.06 0 8.415-3.685 8.415-10.285 0-6.545-3.19-10.34-8.415-10.34-5.06 0-8.47 3.685-8.47 10.395 0 6.49 3.3 10.23 8.47 10.23ZM137.878 147v-29.095h5.06l.275 5.17h.275c1.265-3.74 4.565-5.555 8.415-5.555.66 0 1.21.055 1.705.11v5.335c-.44-.055-1.1-.055-1.76-.055-5.17 0-8.085 2.695-8.36 7.48V147h-5.61ZM171.736 147v-40.095h5.995v34.705h19.14V147h-25.135ZM210.673 147.495c-7.095 0-11.88-5.335-11.88-15.07s4.785-15.015 11.88-15.015c4.895 0 8.525 2.475 9.9 6.215h.33l.22-5.72h5.445V147h-5.665v-5.775h-.33c-1.375 3.74-5.005 6.27-9.9 6.27Zm1.98-4.675c5.39 0 8.195-4.235 8.195-8.745v-3.3c0-4.455-2.805-8.745-8.195-8.745-4.84 0-8.03 3.52-8.03 10.395 0 6.82 3.19 10.395 8.03 10.395ZM234.504 147v-29.095h5.06l.275 5.17h.275c1.265-3.74 4.565-5.555 8.415-5.555.66 0 1.21.055 1.705.11v5.335c-.44-.055-1.1-.055-1.76-.055-5.17 0-8.085 2.695-8.36 7.48V147h-5.61ZM264.223 147.495c-7.095 0-11.88-5.335-11.88-15.07s4.785-15.015 11.88-15.015c4.895 0 8.525 2.475 9.9 6.215h.33l.22-5.72h5.445V147h-5.665v-5.775h-.33c-1.375 3.74-5.005 6.27-9.9 6.27Zm1.98-4.675c5.39 0 8.195-4.235 8.195-8.745v-3.3c0-4.455-2.805-8.745-8.195-8.745-4.84 0-8.03 3.52-8.03 10.395 0 6.82 3.19 10.395 8.03 10.395ZM294.379 147l-10.45-29.095h6.105l5.83 17.93 1.87 6.27h.22l1.76-6.27 5.83-17.93h6.105L301.309 147h-6.93ZM326.956 147.495c-8.745 0-14.08-5.94-14.08-14.905 0-9.185 5.335-15.125 13.86-15.125 9.57 0 14.19 6.985 13.31 16.115h-21.56c.11 5.995 3.41 9.405 8.47 9.405 3.905 0 6.819-1.925 7.534-4.95h5.39c-.77 5.72-6.049 9.46-12.924 9.46Zm-.276-25.575c-4.565 0-7.644 2.915-8.084 7.645h15.894c-.165-5.39-3.52-7.645-7.81-7.645ZM346.169 147v-40.095h5.665V147h-5.665Z"/><path fill="#1EE494" d="M28.003 51.066 1.308 24.954a3.5 3.5 0 0 1-.926-1.122A3.425 3.425 0 0 1 0 22.44c.046-.495.198-.975.447-1.408.249-.433.588-.81.996-1.106l3.292-2.823c.652-.613 1.492-1 2.39-1.103.491.026.972.149 1.414.36.442.213.835.51 1.156.875l25.298 24.612a25.278 25.278 0 0 1 3.743 4.411 8.976 8.976 0 0 1 1.262 4.764 8.678 8.678 0 0 1-1.262 4.41 25.278 25.278 0 0 1-3.743 4.412L9.695 84.897a3.473 3.473 0 0 1-1.166.817c-.443.19-.92.287-1.404.286a3.467 3.467 0 0 1-2.39-.97l-3.292-2.956a3.553 3.553 0 0 1-.996-1.106A3.474 3.474 0 0 1 0 79.56a2.688 2.688 0 0 1 .343-1.335c.229-.41.561-.754.965-1.003l26.695-26.156ZM788.21 0h-42.15A6.057 6.057 0 0 0 740 6.055v89.62a6.057 6.057 0 0 0 6.06 6.055h42.15c3.347 0 6.06-2.71 6.06-6.054V6.055A6.057 6.057 0 0 0 788.21 0Z"/></svg>
